<?xml version="1.0" encoding="UTF-8"?>
<svg xmlns="http://www.w3.org/2000/svg" width="1600" height="2200" viewBox="0 0 1600 2200">
  <!-- Warm sepia background -->
  <rect width="100%" height="100%" fill="#f4ecd8"/>
  <!-- Outer frame (secondary line) -->
  <rect x="28" y="28" width="1544" height="2144" fill="none" stroke="#4a3a2a" stroke-width="3"/>
  <!-- Inner frame (primary ink) -->
  <rect x="44" y="44" width="1512" height="2112" fill="none" stroke="#2b2118" stroke-width="1"/>

  <!-- Victorian corner ornaments -->
  <g stroke="#2b2118" stroke-width="1.5" fill="none">
    <path d="M 68 68 L 68 56 Q 68 48 76 48 L 68 48 M 68 58 L 78 48"/>
    <path d="M 1532 68 L 1532 56 Q 1532 48 1524 48 L 1532 48 M 1532 58 L 1522 48"/>
    <path d="M 68 2132 L 68 2144 Q 68 2152 76 2152 L 68 2152 M 68 2142 L 78 2152"/>
    <path d="M 1532 2132 L 1532 2144 Q 1532 2152 1524 2152 L 1532 2152 M 1532 2142 L 1522 2152"/>
  </g>

  <!-- Top decorative ornaments -->
  <g stroke="#2b2118" stroke-width="1.5" fill="none">
    <line x1="140" y1="110" x2="500" y2="110"/>
    <line x1="140" y1="110" x2="160" y2="92"/>
    <line x1="260" y1="110" x2="260" y2="130"/>
    <line x1="380" y1="110" x2="380" y2="130"/>
    <line x1="500" y1="110" x2="480" y2="92"/>
  </g>
  <g stroke="#2b2118" stroke-width="1.5" fill="none">
    <line x1="1460" y1="110" x2="1100" y2="110"/>
    <line x1="1460" y1="110" x2="1440" y2="92"/>
    <line x1="1340" y1="110" x2="1340" y2="130"/>
    <line x1="1220" y1="110" x2="1220" y2="130"/>
    <line x1="1100" y1="110" x2="1120" y2="92"/>
  </g>
  <line x1="520" y1="130" x2="1080" y2="130" stroke="#4a3a2a" stroke-width="1"/>

  <!-- Masthead: Title -->
  <text x="800" y="220" text-anchor="middle" font-family="Georgia, 'Times New Roman', serif" font-size="56" font-weight="bold" letter-spacing="4" fill="#2b2118">ALEXANDRIA TOOLS CHRONICLE</text>
  <!-- Subtitle -->
  <text x="800" y="275" text-anchor="middle" font-family="Georgia, 'Times New Roman', serif" font-size="24" font-style="italic" fill="#2b2118">Public Process • Private Edge</text>
  <!-- Issue badge -->
  <rect x="710" y="300" width="180" height="40" fill="none" stroke="#2b2118" stroke-width="2"/>
  <text x="800" y="328" text-anchor="middle" font-family="Georgia, 'Times New Roman', serif" font-size="20" font-weight="bold" letter-spacing="3" fill="#2b2118">Issue 01</text>

  <!-- Section 1: Chronicle Edition -->
  <line x1="80" y1="390" x2="1520" y2="390" stroke="#4a3a2a" stroke-width="1"/>
  <text x="80" y="430" font-family="Georgia, 'Times New Roman', serif" font-size="22" font-weight="bold" fill="#2b2118">Chronicle Edition</text>
  <text x="110" y="465" font-family="Georgia, 'Times New Roman', serif" font-size="18" fill="#2b2118">• Issue 01 — 2026-02-13</text>

  <!-- Section 2: You Are Here -->
  <line x1="80" y1="510" x2="1520" y2="510" stroke="#4a3a2a" stroke-width="1"/>
  <text x="80" y="555" font-family="Georgia, 'Times New Roman', serif" font-size="22" font-weight="bold" fill="#2b2118">You Are Here</text>
  <text x="110" y="595" font-family="Georgia, 'Times New Roman', serif" font-size="18" fill="#2b2118">Current Phase: Contract Review</text>
  <text x="110" y="625" font-family="Georgia, 'Times New Roman', serif" font-size="18" fill="#2b2118">Progress: 35%</text>
  <text x="110" y="655" font-family="Georgia, 'Times New Roman', serif" font-size="18" fill="#2b2118">Status: ● In Progress</text>
  <text x="110" y="685" font-family="Georgia, 'Times New Roman', serif" font-size="18" fill="#2b2118">Next Gate: Contract Review signed-off → move to Contract Visualization</text>

  <!-- Section 3: Roadmap Snapshot -->
  <line x1="80" y1="735" x2="1520" y2="735" stroke="#4a3a2a" stroke-width="1"/>
  <text x="80" y="775" font-family="Georgia, 'Times New Roman', serif" font-size="22" font-weight="bold" fill="#2b2118">Roadmap Snapshot</text>
  <text x="110" y="815" font-family="Georgia, 'Times New Roman', serif" font-size="18" fill="#2b2118">☑ Project setup (Chronicle mock)</text>
  <text x="110" y="850" font-family="Georgia, 'Times New Roman', serif" font-size="18" fill="#2b2118">☐ Contract Review</text>
  <text x="110" y="885" font-family="Georgia, 'Times New Roman', serif" font-size="18" fill="#2b2118">☐ Contract Visualization</text>
  <text x="110" y="920" font-family="Georgia, 'Times New Roman', serif" font-size="18" fill="#2b2118">☐ Contract Corrections</text>
  <text x="110" y="955" font-family="Georgia, 'Times New Roman', serif" font-size="18" fill="#2b2118">☐ Human vs Logic Validator</text>
  <text x="110" y="990" font-family="Georgia, 'Times New Roman', serif" font-size="18" fill="#2b2118">☐ MT5 Implementation</text>
  <text x="110" y="1025" font-family="Georgia, 'Times New Roman', serif" font-size="18" fill="#2b2118">☐ Data Gathering</text>
  <text x="110" y="1060" font-family="Georgia, 'Times New Roman', serif" font-size="18" fill="#2b2118">☐ Feedback Loop</text>
  <text x="110" y="1095" font-family="Georgia, 'Times New Roman', serif" font-size="18" fill="#2b2118">☐ Go Live</text>
  <text x="110" y="1130" font-family="Georgia, 'Times New Roman', serif" font-size="18" fill="#2b2118">☐ Post-Live Monitoring</text>

  <!-- Section 4: Public vs Private -->
  <line x1="80" y1="1175" x2="1520" y2="1175" stroke="#4a3a2a" stroke-width="1"/>
  <text x="80" y="1215" font-family="Georgia, 'Times New Roman', serif" font-size="22" font-weight="bold" fill="#2b2118">Public vs Private</text>
  <text x="110" y="1255" font-family="Georgia, 'Times New Roman', serif" font-size="18" fill="#2b2118">Public: roadmap milestones, implementation progress, validation updates.</text>
  <text x="110" y="1290" font-family="Georgia, 'Times New Roman', serif" font-size="18" fill="#2b2118">Private: core strategy logic, exact thresholds, proprietary execution details.</text>

  <!-- Bottom footer -->
  <line x1="80" y1="1345" x2="1520" y2="1345" stroke="#4a3a2a" stroke-width="1"/>
  <text x="800" y="1395" text-anchor="middle" font-family="Georgia, 'Times New Roman', serif" font-size="20" fill="#4a3a2a">Alexandria Tools Chronicle</text>
</svg>
