<?xml version="1.0" encoding="UTF-8"?>
<svg xmlns="http://www.w3.org/2000/svg" width="1600" height="2200" viewBox="0 0 1600 2200">
  <defs>
    <linearGradient id="paper" x1="0%" y1="0%" x2="0%" y2="100%">
      <stop offset="0%" style="stop-color:#F6EFDD"/>
      <stop offset="100%" style="stop-color:#EFE4CC"/>
    </linearGradient>
  </defs>

  <!-- Background: gradient + subtle texture -->
  <rect width="100%" height="100%" fill="url(#paper)"/>
  <g><circle cx="36" cy="36" r="0.5" fill="#2F241A" opacity="0.04"/>
  <circle cx="36" cy="72" r="0.5" fill="#2F241A" opacity="0.04"/>
  <circle cx="36" cy="108" r="0.5" fill="#2F241A" opacity="0.04"/>
  <circle cx="36" cy="144" r="0.5" fill="#2F241A" opacity="0.04"/>
  <circle cx="36" cy="180" r="0.5" fill="#2F241A" opacity="0.04"/>
  <circle cx="36" cy="216" r="0.5" fill="#2F241A" opacity="0.04"/>
  <circle cx="36" cy="252" r="0.5" fill="#2F241A" opacity="0.04"/>
  <circle cx="36" cy="576" r="0.5" fill="#2F241A" opacity="0.04"/>
  <circle cx="36" cy="612" r="0.5" fill="#2F241A" opacity="0.04"/>
  <circle cx="36" cy="648" r="0.5" fill="#2F241A" opacity="0.04"/>
  <circle cx="36" cy="684" r="0.5" fill="#2F241A" opacity="0.04"/>
  <circle cx="36" cy="720" r="0.5" fill="#2F241A" opacity="0.04"/>
  <circle cx="36" cy="756" r="0.5" fill="#2F241A" opacity="0.04"/>
  <circle cx="36" cy="792" r="0.5" fill="#2F241A" opacity="0.04"/>
  <circle cx="36" cy="828" r="0.5" fill="#2F241A" opacity="0.04"/>
  <circle cx="36" cy="1152" r="0.5" fill="#2F241A" opacity="0.04"/>
  <circle cx="36" cy="1188" r="0.5" fill="#2F241A" opacity="0.04"/>
  <circle cx="36" cy="1224" r="0.5" fill="#2F241A" opacity="0.04"/>
  <circle cx="36" cy="1260" r="0.5" fill="#2F241A" opacity="0.04"/>
  <circle cx="36" cy="1296" r="0.5" fill="#2F241A" opacity="0.04"/>
  <circle cx="36" cy="1332" r="0.5" fill="#2F241A" opacity="0.04"/>
  <circle cx="36" cy="1368" r="0.5" fill="#2F241A" opacity="0.04"/>
  <circle cx="36" cy="1404" r="0.5" fill="#2F241A" opacity="0.04"/>
  <circle cx="36" cy="1728" r="0.5" fill="#2F241A" opacity="0.04"/>
  <circle cx="36" cy="1764" r="0.5" fill="#2F241A" opacity="0.04"/>
  <circle cx="36" cy="1800" r="0.5" fill="#2F241A" opacity="0.04"/>
  <circle cx="36" cy="1836" r="0.5" fill="#2F241A" opacity="0.04"/>
  <circle cx="36" cy="1872" r="0.5" fill="#2F241A" opacity="0.04"/>
  <circle cx="36" cy="1908" r="0.5" fill="#2F241A" opacity="0.04"/>
  <circle cx="36" cy="1944" r="0.5" fill="#2F241A" opacity="0.04"/>
  <circle cx="36" cy="1980" r="0.5" fill="#2F241A" opacity="0.04"/>
  <circle cx="72" cy="36" r="0.5" fill="#2F241A" opacity="0.04"/>
  <circle cx="72" cy="72" r="0.5" fill="#2F241A" opacity="0.04"/>
  <circle cx="72" cy="108" r="0.5" fill="#2F241A" opacity="0.04"/>
  <circle cx="72" cy="144" r="0.5" fill="#2F241A" opacity="0.04"/>
  <circle cx="72" cy="180" r="0.5" fill="#2F241A" opacity="0.04"/>
  <circle cx="72" cy="216" r="0.5" fill="#2F241A" opacity="0.04"/>
  <circle cx="72" cy="252" r="0.5" fill="#2F241A" opacity="0.04"/>
  <circle cx="72" cy="288" r="0.5" fill="#2F241A" opacity="0.04"/>
  <circle cx="72" cy="360" r="0.5" fill="#2F241A" opacity="0.04"/>
  <circle cx="72" cy="432" r="0.5" fill="#2F241A" opacity="0.04"/>
  <circle cx="72" cy="504" r="0.5" fill="#2F241A" opacity="0.04"/>
  <circle cx="72" cy="900" r="0.5" fill="#2F241A" opacity="0.04"/>
  <circle cx="72" cy="972" r="0.5" fill="#2F241A" opacity="0.04"/>
  <circle cx="72" cy="1044" r="0.5" fill="#2F241A" opacity="0.04"/>
  <circle cx="72" cy="1116" r="0.5" fill="#2F241A" opacity="0.04"/>
  <circle cx="72" cy="1152" r="0.5" fill="#2F241A" opacity="0.04"/>
  <circle cx="72" cy="1188" r="0.5" fill="#2F241A" opacity="0.04"/>
  <circle cx="72" cy="1224" r="0.5" fill="#2F241A" opacity="0.04"/>
  <circle cx="72" cy="1260" r="0.5" fill="#2F241A" opacity="0.04"/>
  <circle cx="72" cy="1296" r="0.5" fill="#2F241A" opacity="0.04"/>
  <circle cx="72" cy="1332" r="0.5" fill="#2F241A" opacity="0.04"/>
  <circle cx="72" cy="1368" r="0.5" fill="#2F241A" opacity="0.04"/>
  <circle cx="72" cy="1404" r="0.5" fill="#2F241A" opacity="0.04"/>
  <circle cx="72" cy="1440" r="0.5" fill="#2F241A" opacity="0.04"/>
  <circle cx="72" cy="1512" r="0.5" fill="#2F241A" opacity="0.04"/>
  <circle cx="72" cy="1584" r="0.5" fill="#2F241A" opacity="0.04"/>
  <circle cx="72" cy="1656" r="0.5" fill="#2F241A" opacity="0.04"/>
  <circle cx="72" cy="2052" r="0.5" fill="#2F241A" opacity="0.04"/>
  <circle cx="72" cy="2124" r="0.5" fill="#2F241A" opacity="0.04"/>
  <circle cx="72" cy="2196" r="0.5" fill="#2F241A" opacity="0.04"/>
  <circle cx="108" cy="36" r="0.5" fill="#2F241A" opacity="0.04"/>
  <circle cx="108" cy="72" r="0.5" fill="#2F241A" opacity="0.04"/>
  <circle cx="108" cy="108" r="0.5" fill="#2F241A" opacity="0.04"/>
  <circle cx="108" cy="144" r="0.5" fill="#2F241A" opacity="0.04"/>
  <circle cx="108" cy="180" r="0.5" fill="#2F241A" opacity="0.04"/>
  <circle cx="108" cy="216" r="0.5" fill="#2F241A" opacity="0.04"/>
  <circle cx="108" cy="252" r="0.5" fill="#2F241A" opacity="0.04"/>
  <circle cx="108" cy="396" r="0.5" fill="#2F241A" opacity="0.04"/>
  <circle cx="108" cy="540" r="0.5" fill="#2F241A" opacity="0.04"/>
  <circle cx="108" cy="864" r="0.5" fill="#2F241A" opacity="0.04"/>
  <circle cx="108" cy="1008" r="0.5" fill="#2F241A" opacity="0.04"/>
  <circle cx="108" cy="1152" r="0.5" fill="#2F241A" opacity="0.04"/>
  <circle cx="108" cy="1188" r="0.5" fill="#2F241A" opacity="0.04"/>
  <circle cx="108" cy="1224" r="0.5" fill="#2F241A" opacity="0.04"/>
  <circle cx="108" cy="1260" r="0.5" fill="#2F241A" opacity="0.04"/>
  <circle cx="108" cy="1296" r="0.5" fill="#2F241A" opacity="0.04"/>
  <circle cx="108" cy="1332" r="0.5" fill="#2F241A" opacity="0.04"/>
  <circle cx="108" cy="1368" r="0.5" fill="#2F241A" opacity="0.04"/>
  <circle cx="108" cy="1404" r="0.5" fill="#2F241A" opacity="0.04"/>
  <circle cx="108" cy="1548" r="0.5" fill="#2F241A" opacity="0.04"/>
  <circle cx="108" cy="1692" r="0.5" fill="#2F241A" opacity="0.04"/>
  <circle cx="108" cy="2016" r="0.5" fill="#2F241A" opacity="0.04"/>
  <circle cx="108" cy="2160" r="0.5" fill="#2F241A" opacity="0.04"/>
  <circle cx="144" cy="36" r="0.5" fill="#2F241A" opacity="0.04"/>
  <circle cx="144" cy="72" r="0.5" fill="#2F241A" opacity="0.04"/>
  <circle cx="144" cy="108" r="0.5" fill="#2F241A" opacity="0.04"/>
  <circle cx="144" cy="144" r="0.5" fill="#2F241A" opacity="0.04"/>
  <circle cx="144" cy="180" r="0.5" fill="#2F241A" opacity="0.04"/>
  <circle cx="144" cy="216" r="0.5" fill="#2F241A" opacity="0.04"/>
  <circle cx="144" cy="252" r="0.5" fill="#2F241A" opacity="0.04"/>
  <circle cx="144" cy="288" r="0.5" fill="#2F241A" opacity="0.04"/>
  <circle cx="144" cy="324" r="0.5" fill="#2F241A" opacity="0.04"/>
  <circle cx="144" cy="360" r="0.5" fill="#2F241A" opacity="0.04"/>
  <circle cx="144" cy="432" r="0.5" fill="#2F241A" opacity="0.04"/>
  <circle cx="144" cy="468" r="0.5" fill="#2F241A" opacity="0.04"/>
  <circle cx="144" cy="504" r="0.5" fill="#2F241A" opacity="0.04"/>
  <circle cx="144" cy="576" r="0.5" fill="#2F241A" opacity="0.04"/>
  <circle cx="144" cy="612" r="0.5" fill="#2F241A" opacity="0.04"/>
  <circle cx="144" cy="720" r="0.5" fill="#2F241A" opacity="0.04"/>
  <circle cx="144" cy="756" r="0.5" fill="#2F241A" opacity="0.04"/>
  <circle cx="144" cy="864" r="0.5" fill="#2F241A" opacity="0.04"/>
  <circle cx="144" cy="1008" r="0.5" fill="#2F241A" opacity="0.04"/>
  <circle cx="144" cy="1548" r="0.5" fill="#2F241A" opacity="0.04"/>
  <circle cx="144" cy="1692" r="0.5" fill="#2F241A" opacity="0.04"/>
  <circle cx="144" cy="1800" r="0.5" fill="#2F241A" opacity="0.04"/>
  <circle cx="144" cy="1836" r="0.5" fill="#2F241A" opacity="0.04"/>
  <circle cx="144" cy="1944" r="0.5" fill="#2F241A" opacity="0.04"/>
  <circle cx="144" cy="1980" r="0.5" fill="#2F241A" opacity="0.04"/>
  <circle cx="144" cy="2052" r="0.5" fill="#2F241A" opacity="0.04"/>
  <circle cx="144" cy="2088" r="0.5" fill="#2F241A" opacity="0.04"/>
  <circle cx="144" cy="2124" r="0.5" fill="#2F241A" opacity="0.04"/>
  <circle cx="144" cy="2196" r="0.5" fill="#2F241A" opacity="0.04"/>
  <circle cx="180" cy="36" r="0.5" fill="#2F241A" opacity="0.04"/>
  <circle cx="180" cy="72" r="0.5" fill="#2F241A" opacity="0.04"/>
  <circle cx="180" cy="108" r="0.5" fill="#2F241A" opacity="0.04"/>
  <circle cx="180" cy="144" r="0.5" fill="#2F241A" opacity="0.04"/>
  <circle cx="180" cy="180" r="0.5" fill="#2F241A" opacity="0.04"/>
  <circle cx="180" cy="216" r="0.5" fill="#2F241A" opacity="0.04"/>
  <circle cx="180" cy="252" r="0.5" fill="#2F241A" opacity="0.04"/>
  <circle cx="180" cy="396" r="0.5" fill="#2F241A" opacity="0.04"/>
  <circle cx="180" cy="576" r="0.5" fill="#2F241A" opacity="0.04"/>
  <circle cx="180" cy="612" r="0.5" fill="#2F241A" opacity="0.04"/>
  <circle cx="180" cy="720" r="0.5" fill="#2F241A" opacity="0.04"/>
  <circle cx="180" cy="756" r="0.5" fill="#2F241A" opacity="0.04"/>
  <circle cx="180" cy="900" r="0.5" fill="#2F241A" opacity="0.04"/>
  <circle cx="180" cy="972" r="0.5" fill="#2F241A" opacity="0.04"/>
  <circle cx="180" cy="1080" r="0.5" fill="#2F241A" opacity="0.04"/>
  <circle cx="180" cy="1476" r="0.5" fill="#2F241A" opacity="0.04"/>
  <circle cx="180" cy="1584" r="0.5" fill="#2F241A" opacity="0.04"/>
  <circle cx="180" cy="1656" r="0.5" fill="#2F241A" opacity="0.04"/>
  <circle cx="180" cy="1800" r="0.5" fill="#2F241A" opacity="0.04"/>
  <circle cx="180" cy="1836" r="0.5" fill="#2F241A" opacity="0.04"/>
  <circle cx="180" cy="1944" r="0.5" fill="#2F241A" opacity="0.04"/>
  <circle cx="180" cy="1980" r="0.5" fill="#2F241A" opacity="0.04"/>
  <circle cx="180" cy="2160" r="0.5" fill="#2F241A" opacity="0.04"/>
  <circle cx="216" cy="36" r="0.5" fill="#2F241A" opacity="0.04"/>
  <circle cx="216" cy="72" r="0.5" fill="#2F241A" opacity="0.04"/>
  <circle cx="216" cy="108" r="0.5" fill="#2F241A" opacity="0.04"/>
  <circle cx="216" cy="144" r="0.5" fill="#2F241A" opacity="0.04"/>
  <circle cx="216" cy="180" r="0.5" fill="#2F241A" opacity="0.04"/>
  <circle cx="216" cy="216" r="0.5" fill="#2F241A" opacity="0.04"/>
  <circle cx="216" cy="252" r="0.5" fill="#2F241A" opacity="0.04"/>
  <circle cx="216" cy="288" r="0.5" fill="#2F241A" opacity="0.04"/>
  <circle cx="216" cy="360" r="0.5" fill="#2F241A" opacity="0.04"/>
  <circle cx="216" cy="432" r="0.5" fill="#2F241A" opacity="0.04"/>
  <circle cx="216" cy="504" r="0.5" fill="#2F241A" opacity="0.04"/>
  <circle cx="216" cy="540" r="0.5" fill="#2F241A" opacity="0.04"/>
  <circle cx="216" cy="792" r="0.5" fill="#2F241A" opacity="0.04"/>
  <circle cx="216" cy="828" r="0.5" fill="#2F241A" opacity="0.04"/>
  <circle cx="216" cy="1080" r="0.5" fill="#2F241A" opacity="0.04"/>
  <circle cx="216" cy="1476" r="0.5" fill="#2F241A" opacity="0.04"/>
  <circle cx="216" cy="1728" r="0.5" fill="#2F241A" opacity="0.04"/>
  <circle cx="216" cy="1764" r="0.5" fill="#2F241A" opacity="0.04"/>
  <circle cx="216" cy="2016" r="0.5" fill="#2F241A" opacity="0.04"/>
  <circle cx="216" cy="2052" r="0.5" fill="#2F241A" opacity="0.04"/>
  <circle cx="216" cy="2124" r="0.5" fill="#2F241A" opacity="0.04"/>
  <circle cx="216" cy="2196" r="0.5" fill="#2F241A" opacity="0.04"/>
  <circle cx="252" cy="36" r="0.5" fill="#2F241A" opacity="0.04"/>
  <circle cx="252" cy="72" r="0.5" fill="#2F241A" opacity="0.04"/>
  <circle cx="252" cy="108" r="0.5" fill="#2F241A" opacity="0.04"/>
  <circle cx="252" cy="144" r="0.5" fill="#2F241A" opacity="0.04"/>
  <circle cx="252" cy="180" r="0.5" fill="#2F241A" opacity="0.04"/>
  <circle cx="252" cy="216" r="0.5" fill="#2F241A" opacity="0.04"/>
  <circle cx="252" cy="252" r="0.5" fill="#2F241A" opacity="0.04"/>
  <circle cx="252" cy="792" r="0.5" fill="#2F241A" opacity="0.04"/>
  <circle cx="252" cy="828" r="0.5" fill="#2F241A" opacity="0.04"/>
  <circle cx="252" cy="864" r="0.5" fill="#2F241A" opacity="0.04"/>
  <circle cx="252" cy="900" r="0.5" fill="#2F241A" opacity="0.04"/>
  <circle cx="252" cy="936" r="0.5" fill="#2F241A" opacity="0.04"/>
  <circle cx="252" cy="972" r="0.5" fill="#2F241A" opacity="0.04"/>
  <circle cx="252" cy="1008" r="0.5" fill="#2F241A" opacity="0.04"/>
  <circle cx="252" cy="1548" r="0.5" fill="#2F241A" opacity="0.04"/>
  <circle cx="252" cy="1584" r="0.5" fill="#2F241A" opacity="0.04"/>
  <circle cx="252" cy="1620" r="0.5" fill="#2F241A" opacity="0.04"/>
  <circle cx="252" cy="1656" r="0.5" fill="#2F241A" opacity="0.04"/>
  <circle cx="252" cy="1692" r="0.5" fill="#2F241A" opacity="0.04"/>
  <circle cx="252" cy="1728" r="0.5" fill="#2F241A" opacity="0.04"/>
  <circle cx="252" cy="1764" r="0.5" fill="#2F241A" opacity="0.04"/>
  <circle cx="288" cy="72" r="0.5" fill="#2F241A" opacity="0.04"/>
  <circle cx="288" cy="144" r="0.5" fill="#2F241A" opacity="0.04"/>
  <circle cx="288" cy="216" r="0.5" fill="#2F241A" opacity="0.04"/>
  <circle cx="288" cy="288" r="0.5" fill="#2F241A" opacity="0.04"/>
  <circle cx="288" cy="360" r="0.5" fill="#2F241A" opacity="0.04"/>
  <circle cx="288" cy="432" r="0.5" fill="#2F241A" opacity="0.04"/>
  <circle cx="288" cy="504" r="0.5" fill="#2F241A" opacity="0.04"/>
  <circle cx="288" cy="540" r="0.5" fill="#2F241A" opacity="0.04"/>
  <circle cx="288" cy="576" r="0.5" fill="#2F241A" opacity="0.04"/>
  <circle cx="288" cy="648" r="0.5" fill="#2F241A" opacity="0.04"/>
  <circle cx="288" cy="720" r="0.5" fill="#2F241A" opacity="0.04"/>
  <circle cx="288" cy="828" r="0.5" fill="#2F241A" opacity="0.04"/>
  <circle cx="288" cy="864" r="0.5" fill="#2F241A" opacity="0.04"/>
  <circle cx="288" cy="936" r="0.5" fill="#2F241A" opacity="0.04"/>
  <circle cx="288" cy="1008" r="0.5" fill="#2F241A" opacity="0.04"/>
  <circle cx="288" cy="1044" r="0.5" fill="#2F241A" opacity="0.04"/>
  <circle cx="288" cy="1116" r="0.5" fill="#2F241A" opacity="0.04"/>
  <circle cx="288" cy="1152" r="0.5" fill="#2F241A" opacity="0.04"/>
  <circle cx="288" cy="1224" r="0.5" fill="#2F241A" opacity="0.04"/>
  <circle cx="288" cy="1332" r="0.5" fill="#2F241A" opacity="0.04"/>
  <circle cx="288" cy="1404" r="0.5" fill="#2F241A" opacity="0.04"/>
  <circle cx="288" cy="1440" r="0.5" fill="#2F241A" opacity="0.04"/>
  <circle cx="288" cy="1512" r="0.5" fill="#2F241A" opacity="0.04"/>
  <circle cx="288" cy="1548" r="0.5" fill="#2F241A" opacity="0.04"/>
  <circle cx="288" cy="1620" r="0.5" fill="#2F241A" opacity="0.04"/>
  <circle cx="288" cy="1692" r="0.5" fill="#2F241A" opacity="0.04"/>
  <circle cx="288" cy="1728" r="0.5" fill="#2F241A" opacity="0.04"/>
  <circle cx="288" cy="1836" r="0.5" fill="#2F241A" opacity="0.04"/>
  <circle cx="288" cy="1908" r="0.5" fill="#2F241A" opacity="0.04"/>
  <circle cx="288" cy="1980" r="0.5" fill="#2F241A" opacity="0.04"/>
  <circle cx="288" cy="2016" r="0.5" fill="#2F241A" opacity="0.04"/>
  <circle cx="288" cy="2052" r="0.5" fill="#2F241A" opacity="0.04"/>
  <circle cx="288" cy="2124" r="0.5" fill="#2F241A" opacity="0.04"/>
  <circle cx="288" cy="2196" r="0.5" fill="#2F241A" opacity="0.04"/>
  <circle cx="324" cy="144" r="0.5" fill="#2F241A" opacity="0.04"/>
  <circle cx="324" cy="324" r="0.5" fill="#2F241A" opacity="0.04"/>
  <circle cx="324" cy="468" r="0.5" fill="#2F241A" opacity="0.04"/>
  <circle cx="324" cy="648" r="0.5" fill="#2F241A" opacity="0.04"/>
  <circle cx="324" cy="972" r="0.5" fill="#2F241A" opacity="0.04"/>
  <circle cx="324" cy="1080" r="0.5" fill="#2F241A" opacity="0.04"/>
  <circle cx="324" cy="1152" r="0.5" fill="#2F241A" opacity="0.04"/>
  <circle cx="324" cy="1404" r="0.5" fill="#2F241A" opacity="0.04"/>
  <circle cx="324" cy="1476" r="0.5" fill="#2F241A" opacity="0.04"/>
  <circle cx="324" cy="1584" r="0.5" fill="#2F241A" opacity="0.04"/>
  <circle cx="324" cy="1908" r="0.5" fill="#2F241A" opacity="0.04"/>
  <circle cx="324" cy="2088" r="0.5" fill="#2F241A" opacity="0.04"/>
  <circle cx="360" cy="72" r="0.5" fill="#2F241A" opacity="0.04"/>
  <circle cx="360" cy="144" r="0.5" fill="#2F241A" opacity="0.04"/>
  <circle cx="360" cy="216" r="0.5" fill="#2F241A" opacity="0.04"/>
  <circle cx="360" cy="288" r="0.5" fill="#2F241A" opacity="0.04"/>
  <circle cx="360" cy="360" r="0.5" fill="#2F241A" opacity="0.04"/>
  <circle cx="360" cy="396" r="0.5" fill="#2F241A" opacity="0.04"/>
  <circle cx="360" cy="432" r="0.5" fill="#2F241A" opacity="0.04"/>
  <circle cx="360" cy="504" r="0.5" fill="#2F241A" opacity="0.04"/>
  <circle cx="360" cy="612" r="0.5" fill="#2F241A" opacity="0.04"/>
  <circle cx="360" cy="756" r="0.5" fill="#2F241A" opacity="0.04"/>
  <circle cx="360" cy="792" r="0.5" fill="#2F241A" opacity="0.04"/>
  <circle cx="360" cy="1044" r="0.5" fill="#2F241A" opacity="0.04"/>
  <circle cx="360" cy="1116" r="0.5" fill="#2F241A" opacity="0.04"/>
  <circle cx="360" cy="1152" r="0.5" fill="#2F241A" opacity="0.04"/>
  <circle cx="360" cy="1224" r="0.5" fill="#2F241A" opacity="0.04"/>
  <circle cx="360" cy="1332" r="0.5" fill="#2F241A" opacity="0.04"/>
  <circle cx="360" cy="1404" r="0.5" fill="#2F241A" opacity="0.04"/>
  <circle cx="360" cy="1440" r="0.5" fill="#2F241A" opacity="0.04"/>
  <circle cx="360" cy="1512" r="0.5" fill="#2F241A" opacity="0.04"/>
  <circle cx="360" cy="1764" r="0.5" fill="#2F241A" opacity="0.04"/>
  <circle cx="360" cy="1800" r="0.5" fill="#2F241A" opacity="0.04"/>
  <circle cx="360" cy="1944" r="0.5" fill="#2F241A" opacity="0.04"/>
  <circle cx="360" cy="2052" r="0.5" fill="#2F241A" opacity="0.04"/>
  <circle cx="360" cy="2124" r="0.5" fill="#2F241A" opacity="0.04"/>
  <circle cx="360" cy="2160" r="0.5" fill="#2F241A" opacity="0.04"/>
  <circle cx="360" cy="2196" r="0.5" fill="#2F241A" opacity="0.04"/>
  <circle cx="396" cy="108" r="0.5" fill="#2F241A" opacity="0.04"/>
  <circle cx="396" cy="180" r="0.5" fill="#2F241A" opacity="0.04"/>
  <circle cx="396" cy="360" r="0.5" fill="#2F241A" opacity="0.04"/>
  <circle cx="396" cy="396" r="0.5" fill="#2F241A" opacity="0.04"/>
  <circle cx="396" cy="432" r="0.5" fill="#2F241A" opacity="0.04"/>
  <circle cx="396" cy="540" r="0.5" fill="#2F241A" opacity="0.04"/>
  <circle cx="396" cy="576" r="0.5" fill="#2F241A" opacity="0.04"/>
  <circle cx="396" cy="756" r="0.5" fill="#2F241A" opacity="0.04"/>
  <circle cx="396" cy="792" r="0.5" fill="#2F241A" opacity="0.04"/>
  <circle cx="396" cy="972" r="0.5" fill="#2F241A" opacity="0.04"/>
  <circle cx="396" cy="1008" r="0.5" fill="#2F241A" opacity="0.04"/>
  <circle cx="396" cy="1116" r="0.5" fill="#2F241A" opacity="0.04"/>
  <circle cx="396" cy="1188" r="0.5" fill="#2F241A" opacity="0.04"/>
  <circle cx="396" cy="1368" r="0.5" fill="#2F241A" opacity="0.04"/>
  <circle cx="396" cy="1440" r="0.5" fill="#2F241A" opacity="0.04"/>
  <circle cx="396" cy="1548" r="0.5" fill="#2F241A" opacity="0.04"/>
  <circle cx="396" cy="1584" r="0.5" fill="#2F241A" opacity="0.04"/>
  <circle cx="396" cy="1764" r="0.5" fill="#2F241A" opacity="0.04"/>
  <circle cx="396" cy="1800" r="0.5" fill="#2F241A" opacity="0.04"/>
  <circle cx="396" cy="1980" r="0.5" fill="#2F241A" opacity="0.04"/>
  <circle cx="396" cy="2016" r="0.5" fill="#2F241A" opacity="0.04"/>
  <circle cx="396" cy="2124" r="0.5" fill="#2F241A" opacity="0.04"/>
  <circle cx="396" cy="2160" r="0.5" fill="#2F241A" opacity="0.04"/>
  <circle cx="396" cy="2196" r="0.5" fill="#2F241A" opacity="0.04"/>
  <circle cx="432" cy="72" r="0.5" fill="#2F241A" opacity="0.04"/>
  <circle cx="432" cy="144" r="0.5" fill="#2F241A" opacity="0.04"/>
  <circle cx="432" cy="216" r="0.5" fill="#2F241A" opacity="0.04"/>
  <circle cx="432" cy="288" r="0.5" fill="#2F241A" opacity="0.04"/>
  <circle cx="432" cy="360" r="0.5" fill="#2F241A" opacity="0.04"/>
  <circle cx="432" cy="396" r="0.5" fill="#2F241A" opacity="0.04"/>
  <circle cx="432" cy="432" r="0.5" fill="#2F241A" opacity="0.04"/>
  <circle cx="432" cy="504" r="0.5" fill="#2F241A" opacity="0.04"/>
  <circle cx="432" cy="576" r="0.5" fill="#2F241A" opacity="0.04"/>
  <circle cx="432" cy="720" r="0.5" fill="#2F241A" opacity="0.04"/>
  <circle cx="432" cy="864" r="0.5" fill="#2F241A" opacity="0.04"/>
  <circle cx="432" cy="900" r="0.5" fill="#2F241A" opacity="0.04"/>
  <circle cx="432" cy="972" r="0.5" fill="#2F241A" opacity="0.04"/>
  <circle cx="432" cy="1008" r="0.5" fill="#2F241A" opacity="0.04"/>
  <circle cx="432" cy="1080" r="0.5" fill="#2F241A" opacity="0.04"/>
  <circle cx="432" cy="1476" r="0.5" fill="#2F241A" opacity="0.04"/>
  <circle cx="432" cy="1548" r="0.5" fill="#2F241A" opacity="0.04"/>
  <circle cx="432" cy="1584" r="0.5" fill="#2F241A" opacity="0.04"/>
  <circle cx="432" cy="1656" r="0.5" fill="#2F241A" opacity="0.04"/>
  <circle cx="432" cy="1692" r="0.5" fill="#2F241A" opacity="0.04"/>
  <circle cx="432" cy="1836" r="0.5" fill="#2F241A" opacity="0.04"/>
  <circle cx="432" cy="1980" r="0.5" fill="#2F241A" opacity="0.04"/>
  <circle cx="432" cy="2052" r="0.5" fill="#2F241A" opacity="0.04"/>
  <circle cx="432" cy="2124" r="0.5" fill="#2F241A" opacity="0.04"/>
  <circle cx="432" cy="2160" r="0.5" fill="#2F241A" opacity="0.04"/>
  <circle cx="432" cy="2196" r="0.5" fill="#2F241A" opacity="0.04"/>
  <circle cx="468" cy="144" r="0.5" fill="#2F241A" opacity="0.04"/>
  <circle cx="468" cy="324" r="0.5" fill="#2F241A" opacity="0.04"/>
  <circle cx="468" cy="468" r="0.5" fill="#2F241A" opacity="0.04"/>
  <circle cx="468" cy="684" r="0.5" fill="#2F241A" opacity="0.04"/>
  <circle cx="468" cy="828" r="0.5" fill="#2F241A" opacity="0.04"/>
  <circle cx="468" cy="936" r="0.5" fill="#2F241A" opacity="0.04"/>
  <circle cx="468" cy="1116" r="0.5" fill="#2F241A" opacity="0.04"/>
  <circle cx="468" cy="1188" r="0.5" fill="#2F241A" opacity="0.04"/>
  <circle cx="468" cy="1224" r="0.5" fill="#2F241A" opacity="0.04"/>
  <circle cx="468" cy="1332" r="0.5" fill="#2F241A" opacity="0.04"/>
  <circle cx="468" cy="1368" r="0.5" fill="#2F241A" opacity="0.04"/>
  <circle cx="468" cy="1440" r="0.5" fill="#2F241A" opacity="0.04"/>
  <circle cx="468" cy="1620" r="0.5" fill="#2F241A" opacity="0.04"/>
  <circle cx="468" cy="1728" r="0.5" fill="#2F241A" opacity="0.04"/>
  <circle cx="468" cy="1872" r="0.5" fill="#2F241A" opacity="0.04"/>
  <circle cx="468" cy="2088" r="0.5" fill="#2F241A" opacity="0.04"/>
  <circle cx="504" cy="72" r="0.5" fill="#2F241A" opacity="0.04"/>
  <circle cx="504" cy="144" r="0.5" fill="#2F241A" opacity="0.04"/>
  <circle cx="504" cy="216" r="0.5" fill="#2F241A" opacity="0.04"/>
  <circle cx="504" cy="288" r="0.5" fill="#2F241A" opacity="0.04"/>
  <circle cx="504" cy="360" r="0.5" fill="#2F241A" opacity="0.04"/>
  <circle cx="504" cy="432" r="0.5" fill="#2F241A" opacity="0.04"/>
  <circle cx="504" cy="504" r="0.5" fill="#2F241A" opacity="0.04"/>
  <circle cx="504" cy="540" r="0.5" fill="#2F241A" opacity="0.04"/>
  <circle cx="504" cy="612" r="0.5" fill="#2F241A" opacity="0.04"/>
  <circle cx="504" cy="684" r="0.5" fill="#2F241A" opacity="0.04"/>
  <circle cx="504" cy="756" r="0.5" fill="#2F241A" opacity="0.04"/>
  <circle cx="504" cy="828" r="0.5" fill="#2F241A" opacity="0.04"/>
  <circle cx="504" cy="900" r="0.5" fill="#2F241A" opacity="0.04"/>
  <circle cx="504" cy="972" r="0.5" fill="#2F241A" opacity="0.04"/>
  <circle cx="504" cy="1584" r="0.5" fill="#2F241A" opacity="0.04"/>
  <circle cx="504" cy="1656" r="0.5" fill="#2F241A" opacity="0.04"/>
  <circle cx="504" cy="1728" r="0.5" fill="#2F241A" opacity="0.04"/>
  <circle cx="504" cy="1800" r="0.5" fill="#2F241A" opacity="0.04"/>
  <circle cx="504" cy="1872" r="0.5" fill="#2F241A" opacity="0.04"/>
  <circle cx="504" cy="1944" r="0.5" fill="#2F241A" opacity="0.04"/>
  <circle cx="504" cy="2016" r="0.5" fill="#2F241A" opacity="0.04"/>
  <circle cx="504" cy="2052" r="0.5" fill="#2F241A" opacity="0.04"/>
  <circle cx="504" cy="2124" r="0.5" fill="#2F241A" opacity="0.04"/>
  <circle cx="504" cy="2196" r="0.5" fill="#2F241A" opacity="0.04"/>
  <circle cx="540" cy="108" r="0.5" fill="#2F241A" opacity="0.04"/>
  <circle cx="540" cy="216" r="0.5" fill="#2F241A" opacity="0.04"/>
  <circle cx="540" cy="288" r="0.5" fill="#2F241A" opacity="0.04"/>
  <circle cx="540" cy="396" r="0.5" fill="#2F241A" opacity="0.04"/>
  <circle cx="540" cy="504" r="0.5" fill="#2F241A" opacity="0.04"/>
  <circle cx="540" cy="540" r="0.5" fill="#2F241A" opacity="0.04"/>
  <circle cx="540" cy="612" r="0.5" fill="#2F241A" opacity="0.04"/>
  <circle cx="540" cy="720" r="0.5" fill="#2F241A" opacity="0.04"/>
  <circle cx="540" cy="828" r="0.5" fill="#2F241A" opacity="0.04"/>
  <circle cx="540" cy="900" r="0.5" fill="#2F241A" opacity="0.04"/>
  <circle cx="540" cy="1008" r="0.5" fill="#2F241A" opacity="0.04"/>
  <circle cx="540" cy="1080" r="0.5" fill="#2F241A" opacity="0.04"/>
  <circle cx="540" cy="1152" r="0.5" fill="#2F241A" opacity="0.04"/>
  <circle cx="540" cy="1260" r="0.5" fill="#2F241A" opacity="0.04"/>
  <circle cx="540" cy="1368" r="0.5" fill="#2F241A" opacity="0.04"/>
  <circle cx="540" cy="1440" r="0.5" fill="#2F241A" opacity="0.04"/>
  <circle cx="540" cy="1584" r="0.5" fill="#2F241A" opacity="0.04"/>
  <circle cx="540" cy="1692" r="0.5" fill="#2F241A" opacity="0.04"/>
  <circle cx="540" cy="1764" r="0.5" fill="#2F241A" opacity="0.04"/>
  <circle cx="540" cy="1872" r="0.5" fill="#2F241A" opacity="0.04"/>
  <circle cx="540" cy="1980" r="0.5" fill="#2F241A" opacity="0.04"/>
  <circle cx="540" cy="2124" r="0.5" fill="#2F241A" opacity="0.04"/>
  <circle cx="576" cy="36" r="0.5" fill="#2F241A" opacity="0.04"/>
  <circle cx="576" cy="144" r="0.5" fill="#2F241A" opacity="0.04"/>
  <circle cx="576" cy="180" r="0.5" fill="#2F241A" opacity="0.04"/>
  <circle cx="576" cy="288" r="0.5" fill="#2F241A" opacity="0.04"/>
  <circle cx="576" cy="396" r="0.5" fill="#2F241A" opacity="0.04"/>
  <circle cx="576" cy="432" r="0.5" fill="#2F241A" opacity="0.04"/>
  <circle cx="576" cy="576" r="0.5" fill="#2F241A" opacity="0.04"/>
  <circle cx="576" cy="612" r="0.5" fill="#2F241A" opacity="0.04"/>
  <circle cx="576" cy="720" r="0.5" fill="#2F241A" opacity="0.04"/>
  <circle cx="576" cy="756" r="0.5" fill="#2F241A" opacity="0.04"/>
  <circle cx="576" cy="864" r="0.5" fill="#2F241A" opacity="0.04"/>
  <circle cx="576" cy="972" r="0.5" fill="#2F241A" opacity="0.04"/>
  <circle cx="576" cy="1008" r="0.5" fill="#2F241A" opacity="0.04"/>
  <circle cx="576" cy="1044" r="0.5" fill="#2F241A" opacity="0.04"/>
  <circle cx="576" cy="1080" r="0.5" fill="#2F241A" opacity="0.04"/>
  <circle cx="576" cy="1152" r="0.5" fill="#2F241A" opacity="0.04"/>
  <circle cx="576" cy="1188" r="0.5" fill="#2F241A" opacity="0.04"/>
  <circle cx="576" cy="1296" r="0.5" fill="#2F241A" opacity="0.04"/>
  <circle cx="576" cy="1332" r="0.5" fill="#2F241A" opacity="0.04"/>
  <circle cx="576" cy="1440" r="0.5" fill="#2F241A" opacity="0.04"/>
  <circle cx="576" cy="1620" r="0.5" fill="#2F241A" opacity="0.04"/>
  <circle cx="576" cy="1656" r="0.5" fill="#2F241A" opacity="0.04"/>
  <circle cx="576" cy="1728" r="0.5" fill="#2F241A" opacity="0.04"/>
  <circle cx="576" cy="1764" r="0.5" fill="#2F241A" opacity="0.04"/>
  <circle cx="576" cy="1872" r="0.5" fill="#2F241A" opacity="0.04"/>
  <circle cx="576" cy="1908" r="0.5" fill="#2F241A" opacity="0.04"/>
  <circle cx="576" cy="2016" r="0.5" fill="#2F241A" opacity="0.04"/>
  <circle cx="576" cy="2052" r="0.5" fill="#2F241A" opacity="0.04"/>
  <circle cx="576" cy="2088" r="0.5" fill="#2F241A" opacity="0.04"/>
  <circle cx="576" cy="2196" r="0.5" fill="#2F241A" opacity="0.04"/>
  <circle cx="612" cy="36" r="0.5" fill="#2F241A" opacity="0.04"/>
  <circle cx="612" cy="144" r="0.5" fill="#2F241A" opacity="0.04"/>
  <circle cx="612" cy="180" r="0.5" fill="#2F241A" opacity="0.04"/>
  <circle cx="612" cy="360" r="0.5" fill="#2F241A" opacity="0.04"/>
  <circle cx="612" cy="504" r="0.5" fill="#2F241A" opacity="0.04"/>
  <circle cx="612" cy="540" r="0.5" fill="#2F241A" opacity="0.04"/>
  <circle cx="612" cy="576" r="0.5" fill="#2F241A" opacity="0.04"/>
  <circle cx="612" cy="612" r="0.5" fill="#2F241A" opacity="0.04"/>
  <circle cx="612" cy="720" r="0.5" fill="#2F241A" opacity="0.04"/>
  <circle cx="612" cy="756" r="0.5" fill="#2F241A" opacity="0.04"/>
  <circle cx="612" cy="900" r="0.5" fill="#2F241A" opacity="0.04"/>
  <circle cx="612" cy="1152" r="0.5" fill="#2F241A" opacity="0.04"/>
  <circle cx="612" cy="1188" r="0.5" fill="#2F241A" opacity="0.04"/>
  <circle cx="612" cy="1296" r="0.5" fill="#2F241A" opacity="0.04"/>
  <circle cx="612" cy="1332" r="0.5" fill="#2F241A" opacity="0.04"/>
  <circle cx="612" cy="1512" r="0.5" fill="#2F241A" opacity="0.04"/>
  <circle cx="612" cy="1548" r="0.5" fill="#2F241A" opacity="0.04"/>
  <circle cx="612" cy="1692" r="0.5" fill="#2F241A" opacity="0.04"/>
  <circle cx="612" cy="1728" r="0.5" fill="#2F241A" opacity="0.04"/>
  <circle cx="612" cy="1764" r="0.5" fill="#2F241A" opacity="0.04"/>
  <circle cx="612" cy="1872" r="0.5" fill="#2F241A" opacity="0.04"/>
  <circle cx="612" cy="1908" r="0.5" fill="#2F241A" opacity="0.04"/>
  <circle cx="612" cy="2160" r="0.5" fill="#2F241A" opacity="0.04"/>
  <circle cx="648" cy="36" r="0.5" fill="#2F241A" opacity="0.04"/>
  <circle cx="648" cy="288" r="0.5" fill="#2F241A" opacity="0.04"/>
  <circle cx="648" cy="324" r="0.5" fill="#2F241A" opacity="0.04"/>
  <circle cx="648" cy="648" r="0.5" fill="#2F241A" opacity="0.04"/>
  <circle cx="648" cy="684" r="0.5" fill="#2F241A" opacity="0.04"/>
  <circle cx="648" cy="936" r="0.5" fill="#2F241A" opacity="0.04"/>
  <circle cx="648" cy="972" r="0.5" fill="#2F241A" opacity="0.04"/>
  <circle cx="648" cy="1044" r="0.5" fill="#2F241A" opacity="0.04"/>
  <circle cx="648" cy="1296" r="0.5" fill="#2F241A" opacity="0.04"/>
  <circle cx="648" cy="1332" r="0.5" fill="#2F241A" opacity="0.04"/>
  <circle cx="648" cy="1692" r="0.5" fill="#2F241A" opacity="0.04"/>
  <circle cx="648" cy="1944" r="0.5" fill="#2F241A" opacity="0.04"/>
  <circle cx="648" cy="1980" r="0.5" fill="#2F241A" opacity="0.04"/>
  <circle cx="648" cy="2052" r="0.5" fill="#2F241A" opacity="0.04"/>
  <circle cx="648" cy="2160" r="0.5" fill="#2F241A" opacity="0.04"/>
  <circle cx="684" cy="36" r="0.5" fill="#2F241A" opacity="0.04"/>
  <circle cx="684" cy="468" r="0.5" fill="#2F241A" opacity="0.04"/>
  <circle cx="684" cy="504" r="0.5" fill="#2F241A" opacity="0.04"/>
  <circle cx="684" cy="648" r="0.5" fill="#2F241A" opacity="0.04"/>
  <circle cx="684" cy="684" r="0.5" fill="#2F241A" opacity="0.04"/>
  <circle cx="684" cy="1008" r="0.5" fill="#2F241A" opacity="0.04"/>
  <circle cx="684" cy="1116" r="0.5" fill="#2F241A" opacity="0.04"/>
  <circle cx="684" cy="1296" r="0.5" fill="#2F241A" opacity="0.04"/>
  <circle cx="684" cy="1332" r="0.5" fill="#2F241A" opacity="0.04"/>
  <circle cx="684" cy="1476" r="0.5" fill="#2F241A" opacity="0.04"/>
  <circle cx="684" cy="1512" r="0.5" fill="#2F241A" opacity="0.04"/>
  <circle cx="684" cy="1620" r="0.5" fill="#2F241A" opacity="0.04"/>
  <circle cx="684" cy="1656" r="0.5" fill="#2F241A" opacity="0.04"/>
  <circle cx="684" cy="1944" r="0.5" fill="#2F241A" opacity="0.04"/>
  <circle cx="684" cy="1980" r="0.5" fill="#2F241A" opacity="0.04"/>
  <circle cx="684" cy="2016" r="0.5" fill="#2F241A" opacity="0.04"/>
  <circle cx="684" cy="2124" r="0.5" fill="#2F241A" opacity="0.04"/>
  <circle cx="684" cy="2196" r="0.5" fill="#2F241A" opacity="0.04"/>
  <circle cx="720" cy="36" r="0.5" fill="#2F241A" opacity="0.04"/>
  <circle cx="720" cy="144" r="0.5" fill="#2F241A" opacity="0.04"/>
  <circle cx="720" cy="180" r="0.5" fill="#2F241A" opacity="0.04"/>
  <circle cx="720" cy="288" r="0.5" fill="#2F241A" opacity="0.04"/>
  <circle cx="720" cy="432" r="0.5" fill="#2F241A" opacity="0.04"/>
  <circle cx="720" cy="540" r="0.5" fill="#2F241A" opacity="0.04"/>
  <circle cx="720" cy="576" r="0.5" fill="#2F241A" opacity="0.04"/>
  <circle cx="720" cy="612" r="0.5" fill="#2F241A" opacity="0.04"/>
  <circle cx="720" cy="720" r="0.5" fill="#2F241A" opacity="0.04"/>
  <circle cx="720" cy="756" r="0.5" fill="#2F241A" opacity="0.04"/>
  <circle cx="720" cy="792" r="0.5" fill="#2F241A" opacity="0.04"/>
  <circle cx="720" cy="828" r="0.5" fill="#2F241A" opacity="0.04"/>
  <circle cx="720" cy="864" r="0.5" fill="#2F241A" opacity="0.04"/>
  <circle cx="720" cy="1008" r="0.5" fill="#2F241A" opacity="0.04"/>
  <circle cx="720" cy="1224" r="0.5" fill="#2F241A" opacity="0.04"/>
  <circle cx="720" cy="1260" r="0.5" fill="#2F241A" opacity="0.04"/>
  <circle cx="720" cy="1476" r="0.5" fill="#2F241A" opacity="0.04"/>
  <circle cx="720" cy="1512" r="0.5" fill="#2F241A" opacity="0.04"/>
  <circle cx="720" cy="1584" r="0.5" fill="#2F241A" opacity="0.04"/>
  <circle cx="720" cy="2052" r="0.5" fill="#2F241A" opacity="0.04"/>
  <circle cx="720" cy="2088" r="0.5" fill="#2F241A" opacity="0.04"/>
  <circle cx="720" cy="2196" r="0.5" fill="#2F241A" opacity="0.04"/>
  <circle cx="756" cy="36" r="0.5" fill="#2F241A" opacity="0.04"/>
  <circle cx="756" cy="144" r="0.5" fill="#2F241A" opacity="0.04"/>
  <circle cx="756" cy="180" r="0.5" fill="#2F241A" opacity="0.04"/>
  <circle cx="756" cy="360" r="0.5" fill="#2F241A" opacity="0.04"/>
  <circle cx="756" cy="396" r="0.5" fill="#2F241A" opacity="0.04"/>
  <circle cx="756" cy="504" r="0.5" fill="#2F241A" opacity="0.04"/>
  <circle cx="756" cy="576" r="0.5" fill="#2F241A" opacity="0.04"/>
  <circle cx="756" cy="612" r="0.5" fill="#2F241A" opacity="0.04"/>
  <circle cx="756" cy="720" r="0.5" fill="#2F241A" opacity="0.04"/>
  <circle cx="756" cy="756" r="0.5" fill="#2F241A" opacity="0.04"/>
  <circle cx="756" cy="792" r="0.5" fill="#2F241A" opacity="0.04"/>
  <circle cx="756" cy="828" r="0.5" fill="#2F241A" opacity="0.04"/>
  <circle cx="756" cy="936" r="0.5" fill="#2F241A" opacity="0.04"/>
  <circle cx="756" cy="972" r="0.5" fill="#2F241A" opacity="0.04"/>
  <circle cx="756" cy="1080" r="0.5" fill="#2F241A" opacity="0.04"/>
  <circle cx="756" cy="1116" r="0.5" fill="#2F241A" opacity="0.04"/>
  <circle cx="756" cy="1224" r="0.5" fill="#2F241A" opacity="0.04"/>
  <circle cx="756" cy="1260" r="0.5" fill="#2F241A" opacity="0.04"/>
  <circle cx="756" cy="1548" r="0.5" fill="#2F241A" opacity="0.04"/>
  <circle cx="756" cy="1656" r="0.5" fill="#2F241A" opacity="0.04"/>
  <circle cx="756" cy="1692" r="0.5" fill="#2F241A" opacity="0.04"/>
  <circle cx="792" cy="36" r="0.5" fill="#2F241A" opacity="0.04"/>
  <circle cx="792" cy="216" r="0.5" fill="#2F241A" opacity="0.04"/>
  <circle cx="792" cy="252" r="0.5" fill="#2F241A" opacity="0.04"/>
  <circle cx="792" cy="360" r="0.5" fill="#2F241A" opacity="0.04"/>
  <circle cx="792" cy="396" r="0.5" fill="#2F241A" opacity="0.04"/>
  <circle cx="792" cy="720" r="0.5" fill="#2F241A" opacity="0.04"/>
  <circle cx="792" cy="756" r="0.5" fill="#2F241A" opacity="0.04"/>
  <circle cx="792" cy="792" r="0.5" fill="#2F241A" opacity="0.04"/></g>

  <!-- Triple frame -->
  <rect x="56" y="56" width="1488" height="2088" fill="none" stroke="#2F241A" stroke-width="4"/>
  <rect x="68" y="68" width="1464" height="2064" fill="none" stroke="#5A4A39" stroke-width="1"/>
  <rect x="84" y="84" width="1432" height="2032" fill="none" stroke="#8A7762" stroke-width="1"/>

  <!-- Corner ornaments (filigree) -->
  <g stroke="#5A4A39" stroke-width="1.2" fill="none">
    <path d="M 84 84 L 84 100 M 92 92 L 108 84 M 84 94 L 94 84"/>
    <path d="M 1516 84 L 1516 100 M 1508 92 L 1492 84 M 1516 94 L 1506 84"/>
    <path d="M 84 2116 L 84 2100 M 92 2108 L 108 2116 M 84 2106 L 94 2116"/>
    <path d="M 1516 2116 L 1516 2100 M 1508 2108 L 1492 2116 M 1516 2106 L 1506 2116"/>
  </g>

  <!-- Top ornaments (centered, symmetric) -->
  <g stroke="#5A4A39" stroke-width="1.5" fill="none">
    <line x1="480" y1="148" x2="720" y2="148"/>
    <line x1="880" y1="148" x2="1120" y2="148"/>
    <polygon points="792,140 800,128 808,140 800,152" fill="none" stroke="#5A4A39" stroke-width="1"/>
  </g>
  <line x1="174" y1="168" x2="1426" y2="168" stroke="#8A7762" stroke-width="1"/>

  <!-- Masthead -->
  <text x="800" y="260" text-anchor="middle" font-family="Georgia, 'Times New Roman', serif" font-size="84" font-weight="bold" letter-spacing="2" fill="#2F241A">ALEXANDRIA TOOLS CHRONICLE</text>
  <text x="800" y="320" text-anchor="middle" font-family="Georgia, 'Times New Roman', serif" font-size="30" font-style="italic" fill="#5A4A39">Public Process • Private Edge</text>
  <rect x="705" y="350" width="190" height="48" rx="24" ry="24" fill="#B08A57" fill-opacity="0.15" stroke="#B08A57" stroke-width="1.5"/>
  <text x="800" y="384" text-anchor="middle" font-family="Georgia, 'Times New Roman', serif" font-size="26" font-weight="bold" letter-spacing="2" fill="#2F241A">Issue 01</text>

  <!-- Card 1: Chronicle Edition -->
  <rect x="174" y="430" width="1252" height="130" rx="10" ry="10" fill="#EFE4CC" fill-opacity="0.4" stroke="#5A4A39" stroke-width="1"/>
  <text x="214" y="488" font-family="Georgia, 'Times New Roman', serif" font-size="48" font-weight="bold" fill="#2F241A">◆ Chronicle Edition</text>
  <line x1="214" y1="510" x2="414" y2="510" stroke="#8A7762" stroke-width="1"/>
  <text x="214" y="548" font-family="Georgia, 'Times New Roman', serif" font-size="34" fill="#2F241A">• Issue 01 — 2026-02-13</text>

  <!-- Card 2: You Are Here (2-col grid) -->
  <rect x="174" y="590" width="1252" height="240" rx="10" ry="10" fill="#EFE4CC" fill-opacity="0.4" stroke="#5A4A39" stroke-width="1"/>
  <text x="214" y="648" font-family="Georgia, 'Times New Roman', serif" font-size="48" font-weight="bold" fill="#2F241A">◆ You Are Here</text>
  <line x1="214" y1="670" x2="434" y2="670" stroke="#8A7762" stroke-width="1"/>
  <text x="214" y="718" font-family="Georgia, 'Times New Roman', serif" font-size="34" fill="#5A4A39">Current Phase</text>
  <text x="554" y="718" font-family="Georgia, 'Times New Roman', serif" font-size="34" fill="#2F241A">Contract Review</text>
  <text x="214" y="766" font-family="Georgia, 'Times New Roman', serif" font-size="34" fill="#5A4A39">Progress</text>
  <text x="554" y="766" font-family="Georgia, 'Times New Roman', serif" font-size="34" fill="#2F241A">35%</text>
  <text x="214" y="814" font-family="Georgia, 'Times New Roman', serif" font-size="34" fill="#5A4A39">Status</text>
  <text x="552" y="814" font-family="Georgia, 'Times New Roman', serif" font-size="34"><tspan fill="#B08A57">●</tspan> In Progress</text>
  <text x="214" y="860" font-family="Georgia, 'Times New Roman', serif" font-size="34" fill="#5A4A39">Next Gate</text>
  <text x="554" y="860" font-family="Georgia, 'Times New Roman', serif" font-size="28" fill="#2F241A">Contract Review signed-off →</text>
  <text x="554" y="900" font-family="Georgia, 'Times New Roman', serif" font-size="28" fill="#2F241A">move to Contract Visualization</text>

  <!-- Card 3: Roadmap Snapshot (2 columns) -->
  <rect x="174" y="860" width="1252" height="520" rx="10" ry="10" fill="#EFE4CC" fill-opacity="0.4" stroke="#5A4A39" stroke-width="1"/>
  <text x="214" y="918" font-family="Georgia, 'Times New Roman', serif" font-size="48" font-weight="bold" fill="#2F241A">◆ Roadmap Snapshot</text>
  <line x1="214" y1="940" x2="494" y2="940" stroke="#8A7762" stroke-width="1"/>
  <!-- Left column -->
  <text x="214" y="990" font-family="Georgia, 'Times New Roman', serif" font-size="34" fill="#2F241A">☑ Project setup (Chronicle mock)</text>
  <text x="214" y="1036" font-family="Georgia, 'Times New Roman', serif" font-size="34" fill="#2F241A">☐ Contract Review</text>
  <text x="214" y="1082" font-family="Georgia, 'Times New Roman', serif" font-size="34" fill="#2F241A">☐ Contract Visualization</text>
  <text x="214" y="1128" font-family="Georgia, 'Times New Roman', serif" font-size="34" fill="#2F241A">☐ Contract Corrections</text>
  <text x="214" y="1174" font-family="Georgia, 'Times New Roman', serif" font-size="34" fill="#2F241A">☐ Human vs Logic Validator</text>
  <!-- Right column -->
  <text x="800" y="990" font-family="Georgia, 'Times New Roman', serif" font-size="34" fill="#2F241A">☐ MT5 Implementation</text>
  <text x="800" y="1036" font-family="Georgia, 'Times New Roman', serif" font-size="34" fill="#2F241A">☐ Data Gathering</text>
  <text x="800" y="1082" font-family="Georgia, 'Times New Roman', serif" font-size="34" fill="#2F241A">☐ Feedback Loop</text>
  <text x="800" y="1128" font-family="Georgia, 'Times New Roman', serif" font-size="34" fill="#2F241A">☐ Go Live</text>
  <text x="800" y="1174" font-family="Georgia, 'Times New Roman', serif" font-size="34" fill="#2F241A">☐ Post-Live Monitoring</text>

  <!-- Card 4: Public vs Private -->
  <rect x="174" y="1410" width="1252" height="180" rx="10" ry="10" fill="#EFE4CC" fill-opacity="0.4" stroke="#5A4A39" stroke-width="1"/>
  <text x="214" y="1468" font-family="Georgia, 'Times New Roman', serif" font-size="48" font-weight="bold" fill="#2F241A">◆ Public vs Private</text>
  <line x1="214" y1="1490" x2="464" y2="1490" stroke="#8A7762" stroke-width="1"/>
  <text x="214" y="1536" font-family="Georgia, 'Times New Roman', serif" font-size="34" fill="#2F241A">Public: roadmap milestones, implementation progress, validation updates.</text>
  <text x="214" y="1582" font-family="Georgia, 'Times New Roman', serif" font-size="34" fill="#2F241A">Private: core strategy logic, exact thresholds, proprietary execution details.</text>

  <!-- Footer -->
  <line x1="174" y1="1625" x2="1426" y2="1625" stroke="#8A7762" stroke-width="1"/>
  <text x="800" y="1668" text-anchor="middle" font-family="Georgia, 'Times New Roman', serif" font-size="28" font-variant="small-caps" fill="#5A4A39">Alexandria Tools Chronicle</text>
</svg>
