<?xml version="1.0" encoding="UTF-8"?>
<svg xmlns="http://www.w3.org/2000/svg" width="1600" height="900" viewBox="0 0 1600 900">
  <!-- White background -->
  <rect width="100%" height="100%" fill="#ffffff"/>
  <!-- Outer black frame -->
  <rect x="24" y="24" width="1552" height="852" fill="none" stroke="#000000" stroke-width="4"/>
  <!-- Thin inner border -->
  <rect x="36" y="36" width="1528" height="828" fill="none" stroke="#000000" stroke-width="1"/>

  <!-- Top decorative ornaments (geometric flourishes) -->
  <g stroke="#000000" stroke-width="2" fill="none">
    <!-- Left rule with ticks -->
    <line x1="80" y1="90" x2="420" y2="90"/>
    <line x1="120" y1="70" x2="120" y2="110"/>
    <line x1="250" y1="70" x2="250" y2="110"/>
    <line x1="380" y1="70" x2="380" y2="110"/>
    <!-- Right rule (mirror) -->
    <line x1="1520" y1="90" x2="1180" y2="90"/>
    <line x1="1480" y1="70" x2="1480" y2="110"/>
    <line x1="1350" y1="70" x2="1350" y2="110"/>
    <line x1="1220" y1="70" x2="1220" y2="110"/>
    <!-- Center flourish -->
    <line x1="720" y1="90" x2="880" y2="90"/>
    <line x1="800" y1="65" x2="800" y2="115"/>
    <line x1="775" y1="90" x2="825" y2="90"/>
  </g>

  <!-- Title -->
  <text x="800" y="280" text-anchor="middle" font-family="Georgia, 'Times New Roman', Times, serif" font-size="72" font-weight="bold" fill="#000000">ALEXANDRIA TOOLS CHRONICLE</text>

  <!-- Subtitle -->
  <text x="800" y="360" text-anchor="middle" font-family="Georgia, 'Times New Roman', Times, serif" font-size="32" font-style="italic" fill="#000000">Public Process • Private Edge</text>

  <!-- Section ribbon -->
  <rect x="680" y="420" width="240" height="48" fill="none" stroke="#000000" stroke-width="2"/>
  <text x="800" y="452" text-anchor="middle" font-family="Georgia, 'Times New Roman', Times, serif" font-size="24" font-weight="bold" fill="#000000">Issue 01</text>

  <!-- Bottom text -->
  <text x="800" y="820" text-anchor="middle" font-family="Georgia, 'Times New Roman', Times, serif" font-size="20" fill="#000000">Newspaper-style Build Log</text>
</svg>
