<?xml version="1.0" encoding="UTF-8"?>
<svg xmlns="http://www.w3.org/2000/svg" width="1600" height="900" viewBox="0 0 1600 900">
  <!-- Warm sepia background -->
  <rect width="100%" height="100%" fill="#f4ecd8"/>
  <!-- Outer frame (secondary line) -->
  <rect x="28" y="28" width="1544" height="844" fill="none" stroke="#4a3a2a" stroke-width="3"/>
  <!-- Inner frame (primary ink) -->
  <rect x="44" y="44" width="1512" height="812" fill="none" stroke="#2b2118" stroke-width="1"/>

  <!-- Victorian corner ornaments (symmetrical flourishes) -->
  <g stroke="#2b2118" stroke-width="1.5" fill="none">
    <!-- Top-left -->
    <path d="M 68 68 L 68 56 Q 68 48 76 48 L 68 48 M 68 58 L 78 48"/>
    <!-- Top-right -->
    <path d="M 1532 68 L 1532 56 Q 1532 48 1524 48 L 1532 48 M 1532 58 L 1522 48"/>
    <!-- Bottom-left -->
    <path d="M 68 832 L 68 844 Q 68 852 76 852 L 68 852 M 68 842 L 78 852"/>
    <!-- Bottom-right -->
    <path d="M 1532 832 L 1532 844 Q 1532 852 1524 852 L 1532 852 M 1532 842 L 1522 852"/>
  </g>

  <!-- Top decorative ornaments -->
  <g stroke="#2b2118" stroke-width="1.5" fill="none">
    <line x1="140" y1="110" x2="500" y2="110"/>
    <line x1="140" y1="110" x2="160" y2="92"/>
    <line x1="260" y1="110" x2="260" y2="130"/>
    <line x1="380" y1="110" x2="380" y2="130"/>
    <line x1="500" y1="110" x2="480" y2="92"/>
  </g>
  <g stroke="#2b2118" stroke-width="1.5" fill="none">
    <line x1="1460" y1="110" x2="1100" y2="110"/>
    <line x1="1460" y1="110" x2="1440" y2="92"/>
    <line x1="1340" y1="110" x2="1340" y2="130"/>
    <line x1="1220" y1="110" x2="1220" y2="130"/>
    <line x1="1100" y1="110" x2="1120" y2="92"/>
  </g>
  <g stroke="#4a3a2a" stroke-width="1" fill="none">
    <line x1="520" y1="130" x2="1080" y2="130"/>
  </g>

  <!-- Title -->
  <text x="800" y="300" text-anchor="middle" font-family="Georgia, 'Times New Roman', serif" font-size="68" font-weight="bold" letter-spacing="4" fill="#2b2118">ALEXANDRIA TOOLS CHRONICLE</text>

  <!-- Subtitle -->
  <text x="800" y="365" text-anchor="middle" font-family="Georgia, 'Times New Roman', serif" font-size="28" font-style="italic" fill="#2b2118">Public Process • Private Edge</text>

  <!-- Issue badge -->
  <rect x="700" y="410" width="200" height="44" fill="none" stroke="#2b2118" stroke-width="2"/>
  <text x="800" y="440" text-anchor="middle" font-family="Georgia, 'Times New Roman', serif" font-size="22" font-weight="bold" letter-spacing="3" fill="#2b2118">Issue 01</text>

  <!-- Bottom caption (inside cover) -->
  <text x="800" y="830" text-anchor="middle" font-family="Georgia, 'Times New Roman', serif" font-size="18" fill="#4a3a2a">Newspaper-style Build Log</text>
</svg>
